<?xml version="1.0" standalone="no"?>
<!DOCTYPE svg PUBLIC "-//W3C//DTD SVG 20010904//EN"
 "http://www.w3.org/TR/2001/REC-SVG-20010904/DTD/svg10.dtd">
<svg version="1.0" xmlns="http://www.w3.org/2000/svg"
 width="1280.000000pt" height="865.000000pt" viewBox="0 0 1280.000000 865.000000"
 preserveAspectRatio="xMidYMid meet">
<metadata>
Created by potrace 1.15, written by Peter Selinger 2001-2017
</metadata>
<g transform="translate(0.000000,865.000000) scale(0.100000,-0.100000)"
fill="#000000" stroke="none">
<path d="M7910 8552 c-107 -54 -231 -120 -275 -148 -70 -44 -465 -302 -521
-340 -18 -13 -29 -10 -115 32 -298 145 -770 330 -1054 414 -239 70 -330 85
-515 84 -148 0 -171 -2 -223 -23 -110 -44 -203 -139 -229 -235 -50 -188 196
-567 587 -903 128 -110 208 -172 360 -275 61 -41 171 -120 245 -175 130 -96
136 -102 148 -149 7 -27 37 -98 66 -159 l54 -110 -2 -108 c-1 -121 -10 -137
-70 -137 -37 0 -49 7 -65 38 -13 25 -41 30 -41 7 0 -24 30 -78 54 -97 26 -21
62 -22 96 -3 34 19 37 19 44 -9 10 -39 53 -83 100 -101 36 -14 47 -25 69 -71
24 -48 27 -66 27 -153 l0 -99 -62 -23 c-108 -40 -144 -65 -163 -112 -24 -59
-45 -130 -40 -135 2 -3 22 3 45 12 22 9 45 16 50 16 20 0 9 -16 -22 -35 -55
-32 -228 -167 -290 -226 -31 -30 -38 -44 -38 -73 0 -25 -9 -49 -26 -71 -25
-34 -26 -37 -19 -140 9 -123 5 -132 -79 -195 -74 -56 -83 -81 -57 -158 11 -33
41 -108 66 -166 25 -58 45 -111 45 -118 0 -21 -108 -174 -148 -210 -42 -38
-176 -123 -291 -184 -99 -53 -121 -74 -121 -118 0 -27 9 -46 35 -74 l34 -39
-27 -26 c-15 -14 -92 -69 -172 -122 -112 -75 -150 -96 -170 -92 -14 3 -95 23
-180 45 -128 33 -179 41 -291 46 l-136 7 -33 -51 c-40 -62 -63 -126 -55 -151
4 -11 22 -23 46 -29 21 -6 39 -15 39 -20 0 -5 -23 -37 -52 -71 -120 -145 -137
-189 -98 -261 l19 -37 -99 -30 -99 -31 -29 -78 c-26 -66 -34 -77 -56 -80 -26
-3 -133 19 -378 77 -68 17 -163 39 -213 51 -132 32 -434 104 -645 155 -318 76
-561 134 -670 160 -315 74 -915 220 -1278 311 -373 93 -425 109 -535 160 -195
90 -289 124 -348 124 -59 0 -109 -100 -109 -215 0 -62 18 -141 38 -165 18 -21
48 -27 527 -95 138 -19 344 -56 460 -81 116 -25 278 -59 360 -75 83 -17 175
-39 205 -50 30 -11 94 -28 141 -39 47 -10 184 -41 305 -69 120 -27 260 -59
309 -71 85 -19 200 -45 615 -140 96 -22 254 -58 350 -80 96 -22 252 -57 345
-79 404 -92 580 -131 594 -131 32 0 45 -18 43 -56 -4 -49 20 -84 57 -84 16 0
34 6 40 14 11 13 15 12 32 -5 35 -35 88 -20 90 26 0 16 2 15 10 -7 7 -18 22
-31 44 -38 32 -10 116 -92 152 -146 12 -18 12 -26 2 -42 -13 -21 -7 -42 22
-83 9 -12 0 -36 -50 -120 -86 -149 -115 -222 -108 -281 7 -55 62 -180 100
-224 15 -17 64 -55 110 -84 l84 -53 -5 -43 c-6 -56 5 -69 76 -90 31 -9 98 -33
147 -54 50 -20 154 -56 230 -79 172 -52 295 -98 445 -167 63 -29 155 -63 203
-75 74 -18 97 -29 150 -72 34 -27 91 -69 127 -92 61 -39 143 -122 185 -188 12
-19 23 -26 36 -22 20 7 226 -168 436 -368 140 -134 143 -135 241 -85 69 36 68
31 26 126 -13 29 -24 55 -24 57 0 17 -91 204 -133 273 -27 45 -48 84 -45 87 2
3 36 -4 75 -15 39 -11 115 -24 169 -29 64 -6 130 -21 187 -41 141 -50 284 -90
320 -90 28 0 42 9 76 45 34 37 40 49 32 64 -23 43 -281 278 -347 316 -38 22
-99 68 -137 104 l-67 64 20 35 21 35 -24 36 c-32 48 -166 191 -179 191 -6 0
-37 -17 -69 -37 -130 -84 -147 -93 -183 -93 -20 0 -54 9 -74 19 -28 14 -42 17
-56 9 -10 -5 -43 -14 -74 -19 -32 -5 -73 -12 -94 -15 -41 -7 -22 -19 -258 162
-80 61 -165 123 -189 138 -24 15 -46 37 -49 49 -3 11 -44 98 -91 191 -47 94
-87 174 -89 177 -2 4 21 21 51 38 50 28 58 30 120 24 82 -7 98 3 95 61 -3 40
-2 41 31 44 32 3 33 2 26 -25 -3 -15 -7 -32 -8 -38 -1 -5 13 -9 31 -8 33 1 34
1 29 -35 -7 -55 15 -94 66 -114 69 -29 84 -23 118 48 l15 34 23 -30 22 -31 30
21 29 21 26 -20 c33 -26 49 -26 67 -1 14 20 15 20 21 -11 8 -40 23 -59 47 -59
20 0 40 32 59 96 l12 42 62 -63 c53 -54 69 -64 116 -75 30 -6 71 -10 90 -8
l35 3 -1 68 c0 45 3 66 10 63 45 -18 46 -18 46 3 0 25 8 26 34 6 26 -20 66
-19 94 1 13 9 24 14 25 13 29 -55 43 -59 86 -24 l31 27 0 -27 c0 -14 11 -37
25 -51 22 -22 30 -24 82 -19 83 9 93 13 100 46 3 16 6 29 7 29 0 0 35 -7 76
-15 41 -9 89 -17 105 -19 17 -3 77 -14 135 -25 58 -11 166 -31 241 -45 90 -17
198 -47 320 -90 222 -77 243 -85 237 -91 -2 -2 -62 -11 -133 -20 -183 -22
-175 -19 -175 -63 0 -62 0 -62 158 -39 135 20 144 20 171 4 37 -22 97 -22 105
-1 8 21 44 9 69 -22 14 -18 25 -22 43 -18 13 3 38 1 55 -5 26 -9 36 -8 49 4
15 14 39 -1 264 -172 136 -104 278 -209 314 -235 57 -41 263 -137 389 -182 21
-8 169 -68 330 -134 160 -66 313 -128 340 -137 79 -27 232 -62 323 -75 103
-14 190 -44 473 -167 177 -78 220 -93 232 -83 8 7 15 16 15 21 0 5 -85 52
-190 104 -104 52 -190 96 -190 98 0 7 135 -6 361 -33 245 -31 353 -56 579
-135 152 -54 147 -54 155 -12 4 20 5 40 2 45 -3 4 -53 26 -111 47 -59 21 -106
42 -106 45 0 9 89 20 166 20 48 0 81 -8 159 -40 54 -22 102 -40 107 -40 4 0 8
24 8 54 l0 54 -72 30 c-270 112 -613 232 -664 232 -8 0 -14 4 -14 10 0 6 83 7
228 3 l227 -5 118 -46 c99 -38 120 -43 128 -31 25 38 8 52 -188 149 -106 52
-195 98 -199 102 -3 4 92 -31 211 -78 120 -46 225 -84 234 -84 14 0 17 7 13
30 -2 16 -9 33 -16 38 -33 26 -502 233 -627 278 -81 28 -159 59 -175 68 l-29
15 35 1 c50 0 333 -38 407 -55 90 -21 162 -53 303 -133 136 -79 150 -80 153
-11 2 32 -2 36 -108 101 -142 87 -177 100 -392 142 -147 28 -207 46 -343 99
-197 77 -573 233 -615 255 l-30 16 40 12 c22 7 68 13 101 13 59 1 70 -3 278
-110 119 -61 263 -128 319 -149 56 -21 120 -46 141 -55 46 -20 58 -10 54 44
l-3 34 -95 27 c-126 35 -159 51 -335 160 -82 51 -168 101 -190 111 -54 24
-107 28 -530 39 -343 9 -370 11 -570 45 -185 32 -244 37 -500 46 -219 8 -329
8 -451 -1 -180 -14 -251 -6 -291 32 -21 20 -27 21 -58 10 -21 -8 -53 -10 -84
-6 -42 5 -50 10 -56 31 -9 36 -65 103 -86 103 -10 0 -32 -12 -49 -27 l-32 -26
-71 34 c-39 19 -109 58 -155 86 -46 29 -87 53 -91 53 -4 0 -18 -11 -30 -24
-19 -20 -21 -28 -12 -44 21 -40 14 -52 -32 -52 -71 0 -93 -46 -36 -75 17 -9
29 -18 27 -20 -8 -9 -563 106 -570 118 -14 22 -8 27 17 15 28 -13 57 4 53 30
-2 11 10 20 37 28 41 12 65 4 65 -21 0 -15 32 -45 48 -45 7 0 30 8 51 17 47
20 70 55 52 77 -10 12 -7 15 19 21 22 5 38 18 52 41 22 38 25 39 52 19 23 -17
54 -19 76 -5 10 6 14 24 13 55 -1 40 1 46 15 40 59 -25 79 -13 84 50 3 38 5
40 43 45 46 6 54 23 31 68 -15 28 -14 30 17 52 60 44 168 145 203 189 72 92
40 108 -238 121 -237 10 -263 16 -641 140 l-249 81 -106 97 c-318 288 -367
336 -370 367 -2 17 -17 75 -33 130 -39 132 -61 260 -53 312 6 40 9 43 43 48
101 17 238 52 367 94 120 40 146 45 156 34 8 -10 8 -20 -2 -38 -24 -44 -12
-54 104 -91 50 -15 64 -25 97 -71 31 -42 48 -54 82 -63 66 -17 67 -18 67 -44
0 -44 17 -71 94 -153 80 -85 124 -113 175 -113 28 0 34 -5 56 -55 22 -50 30
-58 80 -81 31 -15 74 -28 96 -31 30 -4 46 -15 73 -47 44 -54 151 -158 179
-173 29 -16 70 -16 111 1 158 66 315 494 316 861 0 50 3 114 6 142 l7 53 39
-35 c38 -35 58 -38 58 -10 0 7 -22 30 -50 50 l-50 37 0 93 c0 52 4 96 9 99 15
10 35 -3 56 -36 14 -23 38 -38 82 -54 36 -14 65 -19 68 -14 9 14 -32 50 -58
50 -13 0 -41 15 -63 34 -21 18 -54 41 -72 50 -32 16 -40 45 -11 38 7 -2 42 2
77 9 58 10 70 18 135 78 40 36 108 95 152 131 182 146 215 183 215 238 0 45
-17 42 -108 -21 -114 -79 -114 -79 -22 24 47 51 100 111 118 132 54 64 35 131
-27 91 -14 -10 -68 -50 -118 -91 -51 -40 -95 -73 -98 -73 -3 0 23 33 57 73
115 131 148 177 148 207 0 64 -51 42 -170 -73 -98 -95 -137 -129 -125 -107 5
8 37 61 72 116 66 106 79 156 46 168 -24 10 -53 -15 -173 -145 -58 -63 -133
-138 -167 -166 -99 -85 -141 -67 -93 38 24 54 25 100 4 146 -18 37 -57 69 -73
59 -5 -4 -24 -49 -41 -101 -16 -52 -49 -136 -72 -187 -40 -88 -42 -98 -41
-180 1 -52 8 -101 18 -124 14 -33 14 -39 0 -54 -8 -9 -15 -22 -15 -28 0 -15
-192 -182 -210 -182 -9 0 -59 -38 -112 -85 -53 -47 -103 -85 -112 -85 -9 0
-34 9 -54 19 -64 32 -104 35 -157 12 -47 -21 -75 -26 -75 -15 0 3 5 24 11 47
8 31 21 49 50 69 58 41 58 44 -61 193 -22 28 -40 58 -40 67 0 9 -4 20 -10 23
-25 15 -9 42 33 54 56 17 117 52 117 67 0 7 -33 35 -72 62 -152 102 -167 115
-180 151 -17 50 -17 256 1 304 8 24 50 77 106 137 57 61 98 112 105 135 15 46
8 96 -20 135 -12 17 -19 30 -16 30 4 0 59 -16 124 -36 145 -44 308 -79 466
-100 143 -19 280 -13 401 18 117 29 164 55 204 114 32 47 33 52 29 124 -3 54
-12 89 -30 125 -26 53 -564 733 -651 823 -71 74 -204 172 -508 374 l-259 172
-2 61 c-1 33 -1 76 1 95 3 43 98 377 147 517 l35 101 52 19 c31 10 56 27 61
39 9 19 12 19 70 7 73 -15 119 -6 211 39 75 36 104 63 88 79 -7 7 -45 15 -85
19 -78 7 -153 38 -390 156 -59 30 -118 54 -130 54 -13 0 -111 -44 -218 -98z
m-1416 -1831 c-3 -20 -7 -38 -9 -40 -4 -3 -27 48 -40 89 l-7 22 31 -18 c27
-16 30 -22 25 -53z m29 -468 c63 -83 63 -84 27 -72 -16 6 -39 24 -50 39 -20
28 -38 90 -27 90 3 0 26 -26 50 -57z"/>
</g>
</svg>
